<svg xmlns="http://www.w3.org/2000/svg" xmlns:xlink="http://www.w3.org/1999/xlink" width="100" zoomAndPan="magnify" viewBox="0 0 75 74.999997" height="100" preserveAspectRatio="xMidYMid meet" version="1.2"><defs><clipPath id="e032852746"><path d="M 22.519531 22.5 L 52.519531 22.5 L 52.519531 52.5 L 22.519531 52.5 Z M 22.519531 22.5 "/></clipPath><clipPath id="2f80b7e49a"><path d="M 3.328125 3.285156 L 71.578125 3.285156 L 71.578125 71.535156 L 3.328125 71.535156 Z M 3.328125 3.285156 "/></clipPath><clipPath id="f5ae669569"><path d="M 10.820312 13.351562 L 35.71875 13.351562 L 35.71875 56.632812 L 10.820312 56.632812 Z M 10.820312 13.351562 "/></clipPath><clipPath id="08e05cfaf6"><path d="M 23.269531 13.351562 C 16.394531 13.351562 10.820312 23.019531 10.820312 34.949219 C 10.820312 46.878906 16.394531 56.550781 23.269531 56.550781 C 30.144531 56.550781 35.71875 46.878906 35.71875 34.949219 C 35.71875 23.019531 30.144531 13.351562 23.269531 13.351562 Z M 23.269531 13.351562 "/></clipPath><clipPath id="1bfed11e67"><path d="M 27.019531 24.300781 L 53.417969 24.300781 L 53.417969 67.507812 L 27.019531 67.507812 Z M 27.019531 24.300781 "/></clipPath><clipPath id="6579adfd76"><path d="M 40.21875 24.300781 C 32.929688 24.300781 27.019531 33.96875 27.019531 45.898438 C 27.019531 57.828125 32.929688 67.5 40.21875 67.5 C 47.507812 67.5 53.417969 57.828125 53.417969 45.898438 C 53.417969 33.96875 47.507812 24.300781 40.21875 24.300781 Z M 40.21875 24.300781 "/></clipPath><clipPath id="411b0d8ec2"><path d="M 6.113281 9 L 67 9 L 67 70.25 L 6.113281 70.25 Z M 6.113281 9 "/></clipPath><clipPath id="de109b962b"><path d="M 35.71875 0 L 65.457031 0 L 65.457031 22.367188 L 35.71875 22.367188 Z M 35.71875 0 "/></clipPath><clipPath id="eca87d50a2"><path d="M 50.585938 -7.367188 C 42.375 -7.367188 35.71875 -0.710938 35.71875 7.5 C 35.71875 15.710938 42.375 22.367188 50.585938 22.367188 C 58.800781 22.367188 65.457031 15.710938 65.457031 7.5 C 65.457031 -0.710938 58.800781 -7.367188 50.585938 -7.367188 Z M 50.585938 -7.367188 "/></clipPath><clipPath id="7b908d0c54"><path d="M 53.417969 9.746094 L 75 9.746094 L 75 39.480469 L 53.417969 39.480469 Z M 53.417969 9.746094 "/></clipPath><clipPath id="07f3384999"><path d="M 68.289062 9.746094 C 60.074219 9.746094 53.417969 16.402344 53.417969 24.613281 C 53.417969 32.824219 60.074219 39.480469 68.289062 39.480469 C 76.5 39.480469 83.15625 32.824219 83.15625 24.613281 C 83.15625 16.402344 76.5 9.746094 68.289062 9.746094 Z M 68.289062 9.746094 "/></clipPath><clipPath id="d55c179f0b"><path d="M 57.882812 20.792969 L 73.03125 20.792969 L 73.03125 35.945312 L 57.882812 35.945312 Z M 57.882812 20.792969 "/></clipPath><clipPath id="94ec08cc87"><path d="M 65.457031 20.792969 C 61.273438 20.792969 57.882812 24.183594 57.882812 28.367188 C 57.882812 32.550781 61.273438 35.945312 65.457031 35.945312 C 69.640625 35.945312 73.03125 32.550781 73.03125 28.367188 C 73.03125 24.183594 69.640625 20.792969 65.457031 20.792969 Z M 65.457031 20.792969 "/></clipPath><clipPath id="48f703dbc1"><path d="M 57.882812 20.792969 L 72.882812 20.792969 L 72.882812 35.792969 L 57.882812 35.792969 Z M 57.882812 20.792969 "/></clipPath><clipPath id="4e698563ca"><path d="M 65.382812 20.792969 C 61.238281 20.792969 57.882812 24.152344 57.882812 28.292969 C 57.882812 32.4375 61.238281 35.792969 65.382812 35.792969 C 69.523438 35.792969 72.882812 32.4375 72.882812 28.292969 C 72.882812 24.152344 69.523438 20.792969 65.382812 20.792969 Z M 65.382812 20.792969 "/></clipPath><clipPath id="ade905515b"><path d="M 54.429688 9.746094 L 63.28125 9.746094 L 63.28125 18.59375 L 54.429688 18.59375 Z M 54.429688 9.746094 "/></clipPath><clipPath id="63ea46912a"><path d="M 58.855469 9.746094 C 56.414062 9.746094 54.429688 11.726562 54.429688 14.167969 C 54.429688 16.613281 56.414062 18.59375 58.855469 18.59375 C 61.300781 18.59375 63.28125 16.613281 63.28125 14.167969 C 63.28125 11.726562 61.300781 9.746094 58.855469 9.746094 Z M 58.855469 9.746094 "/></clipPath><clipPath id="a18fbf9c1b"><path d="M 54.429688 9.746094 L 63.277344 9.746094 L 63.277344 18.59375 L 54.429688 18.59375 Z M 54.429688 9.746094 "/></clipPath><clipPath id="02888d7a24"><path d="M 58.855469 9.746094 C 56.410156 9.746094 54.429688 11.726562 54.429688 14.167969 C 54.429688 16.613281 56.410156 18.59375 58.855469 18.59375 C 61.296875 18.59375 63.277344 16.613281 63.277344 14.167969 C 63.277344 11.726562 61.296875 9.746094 58.855469 9.746094 Z M 58.855469 9.746094 "/></clipPath><clipPath id="9679bfe153"><path d="M 66.195312 7.007812 L 71.671875 7.007812 L 71.671875 12.480469 L 66.195312 12.480469 Z M 66.195312 7.007812 "/></clipPath><clipPath id="e71cec1b85"><path d="M 68.933594 7.007812 C 67.421875 7.007812 66.195312 8.234375 66.195312 9.746094 C 66.195312 11.257812 67.421875 12.480469 68.933594 12.480469 C 70.445312 12.480469 71.671875 11.257812 71.671875 9.746094 C 71.671875 8.234375 70.445312 7.007812 68.933594 7.007812 Z M 68.933594 7.007812 "/></clipPath><clipPath id="c5f319e388"><path d="M 66.195312 7.007812 L 71.445312 7.007812 L 71.445312 12.257812 L 66.195312 12.257812 Z M 66.195312 7.007812 "/></clipPath><clipPath id="06349abb56"><path d="M 68.820312 7.007812 C 67.371094 7.007812 66.195312 8.183594 66.195312 9.632812 C 66.195312 11.082031 67.371094 12.257812 68.820312 12.257812 C 70.269531 12.257812 71.445312 11.082031 71.445312 9.632812 C 71.445312 8.183594 70.269531 7.007812 68.820312 7.007812 Z M 68.820312 7.007812 "/></clipPath></defs><g id="2a4b3c40a9"><rect x="0" width="75" y="0" height="74.999997" style="fill:#ffffff;fill-opacity:1;stroke:none;"/><rect x="0" width="75" y="0" height="74.999997" style="fill:#84968a;fill-opacity:1;stroke:none;"/><g clip-rule="nonzero" clip-path="url(#e032852746)"><path style=" stroke:none;fill-rule:nonzero;fill:#84968a;fill-opacity:1;" d="M 52.453125 39 C 52.066406 42.808594 50.277344 46.175781 47.609375 48.597656 C 44.945312 51.019531 41.398438 52.492188 37.523438 52.492188 C 33.378906 52.492188 29.625 50.828125 26.90625 48.105469 C 24.203125 45.386719 22.519531 41.632812 22.519531 37.492188 C 22.519531 33.578125 24.027344 30 26.484375 27.332031 C 28.976562 24.628906 32.433594 22.839844 36.3125 22.539062 C 36.695312 22.507812 37.03125 22.785156 37.066406 23.171875 C 37.066406 23.261719 37.066406 23.332031 37.046875 23.402344 C 37.03125 23.523438 37.011719 23.664062 36.996094 23.820312 C 36.976562 23.980469 36.976562 24.136719 36.976562 24.3125 C 36.976562 25.996094 37.660156 27.542969 38.765625 28.648438 C 39.871094 29.753906 41.417969 30.4375 43.101562 30.4375 C 43.257812 30.4375 43.398438 30.4375 43.523438 30.417969 C 43.679688 30.417969 43.820312 30.402344 43.945312 30.382812 C 44.328125 30.332031 44.679688 30.59375 44.734375 30.980469 C 44.75 31.070312 44.75 31.140625 44.734375 31.210938 C 44.59375 32.15625 44.664062 33.121094 44.960938 34.035156 C 45.261719 34.910156 45.75 35.753906 46.453125 36.457031 C 47.15625 37.15625 47.980469 37.648438 48.839844 37.929688 C 49.753906 38.226562 50.71875 38.316406 51.664062 38.175781 C 52.050781 38.121094 52.402344 38.386719 52.453125 38.773438 C 52.472656 38.859375 52.472656 38.929688 52.453125 39 Z M 46.664062 47.5625 C 48.910156 45.546875 50.472656 42.773438 50.960938 39.648438 C 50.101562 39.667969 49.242188 39.542969 48.402344 39.261719 C 47.332031 38.894531 46.3125 38.296875 45.46875 37.4375 C 44.59375 36.578125 43.996094 35.5625 43.628906 34.472656 C 43.347656 33.613281 43.222656 32.71875 43.257812 31.839844 C 43.207031 31.839844 43.152344 31.839844 43.101562 31.839844 C 41.03125 31.839844 39.136719 31 37.785156 29.648438 C 36.417969 28.277344 35.574219 26.402344 35.574219 24.3125 C 35.574219 24.226562 35.574219 24.121094 35.574219 24.03125 C 32.414062 24.472656 29.589844 26.03125 27.519531 28.277344 C 25.292969 30.699219 23.921875 33.929688 23.921875 37.492188 C 23.921875 41.246094 25.449219 44.652344 27.90625 47.105469 C 30.363281 49.5625 33.765625 51.089844 37.523438 51.089844 C 41.046875 51.089844 44.242188 49.757812 46.664062 47.5625 Z M 46.664062 47.5625 "/></g><path style=" stroke:none;fill-rule:nonzero;fill:#84968a;fill-opacity:1;" d="M 31.082031 27.558594 C 31.976562 27.558594 32.785156 27.910156 33.378906 28.507812 C 33.976562 29.085938 34.328125 29.910156 34.328125 30.804688 C 34.328125 31.699219 33.976562 32.523438 33.378906 33.105469 C 32.785156 33.699219 31.976562 34.070312 31.082031 34.070312 C 30.1875 34.070312 29.363281 33.699219 28.78125 33.105469 C 28.1875 32.523438 27.816406 31.699219 27.816406 30.804688 C 27.816406 29.910156 28.1875 29.085938 28.78125 28.507812 C 29.363281 27.910156 30.1875 27.558594 31.082031 27.558594 Z M 32.378906 29.488281 C 32.046875 29.15625 31.589844 28.964844 31.082031 28.964844 C 30.574219 28.964844 30.097656 29.15625 29.765625 29.488281 C 29.433594 29.839844 29.222656 30.296875 29.222656 30.804688 C 29.222656 31.316406 29.433594 31.789062 29.765625 32.121094 C 30.097656 32.457031 30.574219 32.664062 31.082031 32.664062 C 31.589844 32.664062 32.046875 32.457031 32.378906 32.121094 C 32.730469 31.789062 32.925781 31.316406 32.925781 30.804688 C 32.925781 30.296875 32.730469 29.839844 32.378906 29.488281 Z M 32.378906 29.488281 "/><path style=" stroke:none;fill-rule:nonzero;fill:#84968a;fill-opacity:1;" d="M 29.46875 35.875 C 30.363281 35.875 31.167969 36.226562 31.765625 36.824219 C 32.34375 37.421875 32.714844 38.226562 32.714844 39.125 C 32.714844 40.019531 32.34375 40.84375 31.765625 41.421875 C 31.167969 42.019531 30.363281 42.386719 29.46875 42.386719 C 28.554688 42.386719 27.746094 42.019531 27.152344 41.421875 C 26.570312 40.84375 26.203125 40.019531 26.203125 39.125 C 26.203125 38.226562 26.570312 37.421875 27.152344 36.824219 C 27.746094 36.226562 28.554688 35.875 29.46875 35.875 Z M 30.765625 37.824219 C 30.433594 37.492188 29.976562 37.28125 29.46875 37.28125 C 28.941406 37.28125 28.484375 37.492188 28.152344 37.824219 C 27.816406 38.15625 27.609375 38.613281 27.609375 39.125 C 27.609375 39.632812 27.816406 40.105469 28.152344 40.4375 C 28.484375 40.773438 28.941406 40.984375 29.46875 40.984375 C 29.976562 40.984375 30.433594 40.773438 30.765625 40.4375 C 31.097656 40.105469 31.308594 39.632812 31.308594 39.125 C 31.308594 38.613281 31.097656 38.15625 30.765625 37.824219 Z M 30.765625 37.824219 "/><path style=" stroke:none;fill-rule:nonzero;fill:#84968a;fill-opacity:1;" d="M 37.925781 42.984375 C 38.835938 42.984375 39.644531 43.351562 40.222656 43.949219 C 40.820312 44.527344 41.1875 45.351562 41.1875 46.246094 C 41.1875 47.140625 40.820312 47.96875 40.222656 48.546875 C 39.644531 49.144531 38.835938 49.492188 37.925781 49.492188 C 37.03125 49.492188 36.222656 49.144531 35.625 48.546875 C 35.03125 47.96875 34.679688 47.140625 34.679688 46.246094 C 34.679688 45.351562 35.03125 44.527344 35.625 43.949219 C 36.222656 43.351562 37.03125 42.984375 37.925781 42.984375 Z M 39.242188 44.929688 C 38.90625 44.597656 38.433594 44.386719 37.925781 44.386719 C 37.417969 44.386719 36.960938 44.597656 36.625 44.929688 C 36.292969 45.265625 36.082031 45.738281 36.082031 46.246094 C 36.082031 46.757812 36.292969 47.210938 36.625 47.5625 C 36.960938 47.898438 37.417969 48.089844 37.925781 48.089844 C 38.433594 48.089844 38.90625 47.898438 39.242188 47.5625 C 39.574219 47.210938 39.785156 46.757812 39.785156 46.246094 C 39.785156 45.738281 39.574219 45.265625 39.242188 44.929688 Z M 39.242188 44.929688 "/><path style=" stroke:none;fill-rule:nonzero;fill:#84968a;fill-opacity:1;" d="M 39.996094 34.332031 C 40.890625 34.332031 41.714844 34.703125 42.292969 35.28125 C 42.890625 35.875 43.257812 36.683594 43.257812 37.597656 C 43.257812 38.492188 42.890625 39.296875 42.292969 39.894531 C 41.714844 40.472656 40.890625 40.84375 39.996094 40.84375 C 39.101562 40.84375 38.277344 40.472656 37.695312 39.894531 C 37.101562 39.296875 36.730469 38.492188 36.730469 37.597656 C 36.730469 36.683594 37.101562 35.875 37.695312 35.28125 C 38.277344 34.703125 39.101562 34.332031 39.996094 34.332031 Z M 41.3125 36.28125 C 40.976562 35.945312 40.503906 35.738281 39.996094 35.738281 C 39.488281 35.738281 39.03125 35.945312 38.679688 36.28125 C 38.347656 36.613281 38.136719 37.085938 38.136719 37.597656 C 38.136719 38.105469 38.347656 38.5625 38.679688 38.894531 C 39.011719 39.226562 39.488281 39.4375 39.996094 39.4375 C 40.503906 39.4375 40.976562 39.226562 41.3125 38.894531 C 41.644531 38.5625 41.855469 38.105469 41.855469 37.597656 C 41.855469 37.085938 41.644531 36.613281 41.3125 36.28125 Z M 41.3125 36.28125 "/><g clip-rule="nonzero" clip-path="url(#2f80b7e49a)"><path style=" stroke:none;fill-rule:nonzero;fill:#ffffff;fill-opacity:1;" d="M 71.445312 40.824219 C 70.566406 49.488281 66.492188 57.15625 60.425781 62.664062 C 54.355469 68.175781 46.289062 71.527344 37.464844 71.527344 C 28.042969 71.527344 19.5 67.734375 13.308594 61.546875 C 7.160156 55.359375 3.328125 46.8125 3.328125 37.390625 C 3.328125 28.488281 6.761719 20.339844 12.351562 14.273438 C 18.023438 8.125 25.886719 4.050781 34.710938 3.371094 C 35.589844 3.292969 36.347656 3.929688 36.429688 4.808594 C 36.429688 5.007812 36.429688 5.167969 36.386719 5.328125 C 36.347656 5.609375 36.308594 5.925781 36.269531 6.285156 C 36.230469 6.644531 36.230469 7.003906 36.230469 7.40625 C 36.230469 11.238281 37.785156 14.75 40.300781 17.265625 C 42.816406 19.78125 46.332031 21.339844 50.164062 21.339844 C 50.523438 21.339844 50.84375 21.339844 51.121094 21.300781 C 51.480469 21.300781 51.800781 21.261719 52.078125 21.21875 C 52.957031 21.101562 53.757812 21.699219 53.875 22.578125 C 53.917969 22.777344 53.917969 22.9375 53.875 23.097656 C 53.558594 25.253906 53.71875 27.449219 54.394531 29.523438 C 55.074219 31.519531 56.191406 33.4375 57.789062 35.035156 C 59.386719 36.632812 61.261719 37.75 63.21875 38.390625 C 65.296875 39.066406 67.492188 39.265625 69.648438 38.949219 C 70.527344 38.828125 71.324219 39.425781 71.445312 40.304688 C 71.484375 40.503906 71.484375 40.664062 71.445312 40.824219 Z M 58.269531 60.308594 C 63.378906 55.71875 66.933594 49.410156 68.050781 42.300781 C 66.09375 42.339844 64.136719 42.0625 62.222656 41.421875 C 59.785156 40.585938 57.46875 39.226562 55.554688 37.269531 C 53.558594 35.3125 52.199219 33 51.359375 30.523438 C 50.722656 28.566406 50.441406 26.53125 50.523438 24.535156 C 50.402344 24.535156 50.28125 24.535156 50.164062 24.535156 C 45.453125 24.535156 41.140625 22.617188 38.066406 19.542969 C 34.949219 16.429688 33.035156 12.15625 33.035156 7.40625 C 33.035156 7.207031 33.035156 6.964844 33.035156 6.765625 C 25.847656 7.765625 19.417969 11.316406 14.707031 16.429688 C 9.636719 21.9375 6.523438 29.285156 6.523438 37.390625 C 6.523438 45.933594 9.996094 53.679688 15.585938 59.269531 C 21.175781 64.859375 28.921875 68.335938 37.464844 68.335938 C 45.492188 68.335938 52.757812 65.300781 58.269531 60.308594 Z M 58.269531 60.308594 "/></g><path style=" stroke:none;fill-rule:nonzero;fill:#ffffff;fill-opacity:1;" d="M 22.8125 14.792969 C 24.847656 14.792969 26.6875 15.589844 28.042969 16.949219 C 29.402344 18.265625 30.199219 20.140625 30.199219 22.179688 C 30.199219 24.214844 29.402344 26.089844 28.042969 27.410156 C 26.6875 28.765625 24.847656 29.605469 22.8125 29.605469 C 20.777344 29.605469 18.898438 28.765625 17.582031 27.410156 C 16.226562 26.089844 15.386719 24.214844 15.386719 22.179688 C 15.386719 20.140625 16.226562 18.265625 17.582031 16.949219 C 18.898438 15.589844 20.777344 14.792969 22.8125 14.792969 Z M 25.769531 19.183594 C 25.007812 18.425781 23.972656 17.984375 22.8125 17.984375 C 21.65625 17.984375 20.578125 18.425781 19.820312 19.183594 C 19.058594 19.980469 18.582031 21.019531 18.582031 22.179688 C 18.582031 23.335938 19.058594 24.414062 19.820312 25.171875 C 20.578125 25.929688 21.65625 26.410156 22.8125 26.410156 C 23.972656 26.410156 25.007812 25.929688 25.769531 25.171875 C 26.566406 24.414062 27.003906 23.335938 27.003906 22.179688 C 27.003906 21.019531 26.566406 19.980469 25.769531 19.183594 Z M 25.769531 19.183594 "/><path style=" stroke:none;fill-rule:nonzero;fill:#ffffff;fill-opacity:1;" d="M 19.140625 33.71875 C 21.175781 33.71875 23.011719 34.515625 24.371094 35.875 C 25.6875 37.230469 26.527344 39.066406 26.527344 41.105469 C 26.527344 43.140625 25.6875 45.015625 24.371094 46.335938 C 23.011719 47.691406 21.175781 48.53125 19.140625 48.53125 C 17.0625 48.53125 15.226562 47.691406 13.871094 46.335938 C 12.550781 45.015625 11.714844 43.140625 11.714844 41.105469 C 11.714844 39.066406 12.550781 37.230469 13.871094 35.875 C 15.226562 34.515625 17.0625 33.71875 19.140625 33.71875 Z M 22.09375 38.148438 C 21.335938 37.390625 20.296875 36.910156 19.140625 36.910156 C 17.941406 36.910156 16.902344 37.390625 16.144531 38.148438 C 15.386719 38.90625 14.90625 39.945312 14.90625 41.105469 C 14.90625 42.261719 15.386719 43.339844 16.144531 44.097656 C 16.902344 44.855469 17.941406 45.335938 19.140625 45.335938 C 20.296875 45.335938 21.335938 44.855469 22.09375 44.097656 C 22.851562 43.339844 23.332031 42.261719 23.332031 41.105469 C 23.332031 39.945312 22.851562 38.90625 22.09375 38.148438 Z M 22.09375 38.148438 "/><path style=" stroke:none;fill-rule:nonzero;fill:#ffffff;fill-opacity:1;" d="M 38.382812 49.886719 C 40.460938 49.886719 42.296875 50.726562 43.617188 52.082031 C 44.972656 53.402344 45.8125 55.277344 45.8125 57.3125 C 45.8125 59.351562 44.972656 61.226562 43.617188 62.546875 C 42.296875 63.902344 40.460938 64.699219 38.382812 64.699219 C 36.347656 64.699219 34.511719 63.902344 33.152344 62.546875 C 31.796875 61.226562 31 59.351562 31 57.3125 C 31 55.277344 31.796875 53.402344 33.152344 52.082031 C 34.511719 50.726562 36.347656 49.886719 38.382812 49.886719 Z M 41.378906 54.320312 C 40.621094 53.5625 39.542969 53.082031 38.382812 53.082031 C 37.226562 53.082031 36.1875 53.5625 35.429688 54.320312 C 34.671875 55.078125 34.191406 56.15625 34.191406 57.3125 C 34.191406 58.472656 34.671875 59.511719 35.429688 60.308594 C 36.1875 61.066406 37.226562 61.507812 38.382812 61.507812 C 39.542969 61.507812 40.621094 61.066406 41.378906 60.308594 C 42.136719 59.511719 42.617188 58.472656 42.617188 57.3125 C 42.617188 56.15625 42.136719 55.078125 41.378906 54.320312 Z M 41.378906 54.320312 "/><path style=" stroke:none;fill-rule:nonzero;fill:#ffffff;fill-opacity:1;" d="M 43.097656 30.203125 C 45.132812 30.203125 47.007812 31.042969 48.328125 32.359375 C 49.683594 33.71875 50.523438 35.554688 50.523438 37.628906 C 50.523438 39.667969 49.683594 41.503906 48.328125 42.859375 C 47.007812 44.179688 45.132812 45.015625 43.097656 45.015625 C 41.058594 45.015625 39.183594 44.179688 37.867188 42.859375 C 36.507812 41.503906 35.667969 39.667969 35.667969 37.628906 C 35.667969 35.554688 36.507812 33.71875 37.867188 32.359375 C 39.183594 31.042969 41.058594 30.203125 43.097656 30.203125 Z M 46.089844 34.636719 C 45.332031 33.875 44.253906 33.398438 43.097656 33.398438 C 41.9375 33.398438 40.898438 33.875 40.101562 34.636719 C 39.34375 35.394531 38.863281 36.472656 38.863281 37.628906 C 38.863281 38.789062 39.34375 39.824219 40.101562 40.585938 C 40.859375 41.34375 41.9375 41.824219 43.097656 41.824219 C 44.253906 41.824219 45.332031 41.34375 46.089844 40.585938 C 46.847656 39.824219 47.328125 38.789062 47.328125 37.628906 C 47.328125 36.472656 46.847656 35.394531 46.089844 34.636719 Z M 46.089844 34.636719 "/><g clip-rule="nonzero" clip-path="url(#f5ae669569)"><g clip-rule="nonzero" clip-path="url(#08e05cfaf6)"><path style=" stroke:none;fill-rule:nonzero;fill:#84968a;fill-opacity:1;" d="M 10.820312 13.351562 L 35.71875 13.351562 L 35.71875 56.535156 L 10.820312 56.535156 Z M 10.820312 13.351562 "/></g></g><g clip-rule="nonzero" clip-path="url(#1bfed11e67)"><g clip-rule="nonzero" clip-path="url(#6579adfd76)"><path style=" stroke:none;fill-rule:nonzero;fill:#84968a;fill-opacity:1;" d="M 27.019531 24.300781 L 53.417969 24.300781 L 53.417969 67.507812 L 27.019531 67.507812 Z M 27.019531 24.300781 "/></g></g><g clip-rule="nonzero" clip-path="url(#411b0d8ec2)"><path style=" stroke:none;fill-rule:nonzero;fill:#ffffff;fill-opacity:1;" d="M 48.058594 14.554688 C 41.300781 11.371094 33.894531 11.207031 25.851562 14.070312 C 25.070312 14.347656 24.539062 14.097656 24.253906 13.320312 C 24.226562 13.234375 24.210938 13.144531 24.210938 13.050781 C 24.207031 12.339844 24.542969 11.863281 25.210938 11.621094 C 33.082031 8.804688 40.488281 8.757812 47.421875 11.476562 C 58.882812 15.960938 67.511719 27.339844 66.925781 40.074219 C 66.894531 40.761719 66.535156 41.09375 65.84375 41.070312 C 65.773438 41.0625 65.707031 41.0625 65.636719 41.054688 C 64.957031 41.03125 64.597656 40.679688 64.558594 39.996094 C 63.90625 28.457031 58.550781 19.496094 48.058594 14.554688 Z M 7.902344 44.089844 C 7.394531 44.199219 7.035156 44.652344 7.046875 45.171875 C 7.066406 45.945312 7.441406 46.351562 8.164062 46.398438 C 10.300781 46.53125 12.683594 44.878906 13.652344 43.164062 C 14.25 42.105469 14.570312 40.796875 14.609375 39.242188 C 14.941406 27.277344 24.640625 17.945312 36.539062 17.875 C 48.226562 17.808594 58.015625 26.992188 58.570312 38.816406 C 58.640625 40.414062 58.582031 42.523438 58.390625 45.140625 C 58.351562 45.6875 58.726562 46.171875 59.261719 46.265625 L 59.511719 46.316406 C 60.269531 46.457031 60.710938 46.144531 60.839844 45.382812 C 62.03125 38.125 60.738281 31.699219 56.964844 26.105469 C 47.167969 11.578125 25.75 11.773438 16.054688 26.324219 C 13.4375 30.25 12.054688 34.761719 11.90625 39.863281 C 11.835938 42.414062 10.179688 43.589844 7.902344 44.089844 Z M 17.691406 19.378906 C 17.730469 19.339844 17.765625 19.300781 17.800781 19.261719 C 18.222656 18.726562 18.136719 17.953125 17.605469 17.527344 C 16.949219 17 16.179688 17.183594 15.296875 18.085938 C 14.871094 18.519531 14.464844 18.957031 14.070312 19.394531 C 8.757812 25.390625 6.121094 32.285156 6.167969 40.089844 C 6.171875 40.628906 6.597656 41.074219 7.136719 41.101562 L 7.386719 41.117188 C 7.40625 41.117188 7.425781 41.117188 7.441406 41.117188 C 8.132812 41.128906 8.703125 40.574219 8.714844 39.882812 C 8.824219 31.890625 11.910156 24.953125 17.691406 19.378906 Z M 43.144531 25.097656 C 49.835938 28.34375 53.03125 33.8125 52.734375 41.5 C 52.46875 48.167969 50.964844 54.214844 48.222656 59.648438 C 46.988281 62.09375 45.457031 64.621094 43.636719 67.234375 C 43.496094 67.4375 43.441406 67.6875 43.484375 67.933594 C 43.589844 68.515625 43.8125 68.839844 44.15625 68.910156 C 44.929688 69.082031 45.546875 68.859375 46 68.246094 C 50.441406 62.316406 53.34375 55.523438 54.707031 47.871094 C 55.472656 43.597656 55.578125 39.761719 55.027344 36.351562 C 53.769531 28.574219 46.707031 22 38.855469 21.269531 C 31.359375 20.570312 25.417969 23.261719 21.035156 29.339844 C 20.09375 30.644531 19.414062 32.078125 18.988281 33.644531 C 18.859375 34.109375 19.082031 34.605469 19.519531 34.816406 L 19.726562 34.914062 C 20.425781 35.25 20.9375 35.0625 21.25 34.351562 C 23.332031 29.597656 26.433594 26.441406 30.550781 24.878906 C 35.085938 23.160156 39.285156 23.230469 43.144531 25.097656 Z M 33.402344 29.980469 C 34.601562 29.566406 35.910156 29.617188 37.125 29.292969 C 37.621094 29.160156 37.925781 28.664062 37.824219 28.15625 L 37.78125 27.976562 C 37.605469 27.082031 37.058594 26.6875 36.15625 26.808594 C 30.109375 27.574219 26.15625 30.566406 24.300781 35.777344 C 23.902344 36.902344 23.691406 38.058594 23.667969 39.253906 C 23.527344 47.210938 19.660156 52.613281 12.066406 55.46875 C 12 55.492188 11.941406 55.523438 11.882812 55.558594 C 11.40625 55.859375 11.261719 56.484375 11.558594 56.960938 L 11.8125 57.382812 C 12.097656 57.835938 12.660156 58.019531 13.152344 57.824219 C 21.8125 54.390625 26.203125 48.078125 26.320312 38.878906 C 26.367188 34.824219 29.835938 31.203125 33.402344 29.980469 Z M 35.234375 67.945312 C 34.859375 68.324219 34.71875 68.777344 34.808594 69.308594 C 34.890625 69.796875 35.261719 70.085938 35.914062 70.167969 C 36.289062 70.21875 36.660156 70.09375 36.921875 69.832031 C 45.175781 61.703125 50.324219 49.667969 49.417969 38.257812 C 49.242188 36.046875 48.339844 33.894531 46.707031 31.804688 C 46.191406 31.140625 45.585938 31.046875 44.894531 31.53125 L 44.691406 31.667969 C 44.679688 31.675781 44.667969 31.6875 44.65625 31.695312 C 44.246094 32.007812 44.167969 32.589844 44.480469 33 C 46.125 35.15625 46.9375 37.539062 46.917969 40.152344 C 46.859375 50.746094 42.691406 60.375 35.234375 67.945312 Z M 43.675781 39.238281 C 43.386719 33.601562 36.601562 30.835938 32.1875 34.300781 C 30.476562 35.644531 29.570312 37.464844 29.480469 39.761719 C 29.449219 40.425781 29.757812 40.84375 30.40625 41.015625 L 30.734375 41.101562 C 31.382812 41.269531 31.773438 41.023438 31.90625 40.371094 C 32.304688 38.40625 32.625 36.722656 34.632812 35.730469 C 36.570312 34.765625 38.996094 35.460938 40.257812 37.214844 C 41.257812 38.597656 41.195312 40.398438 41.066406 42.035156 C 40.195312 52.65625 35.597656 60.171875 27.695312 66.816406 C 27.488281 66.996094 27.34375 67.234375 27.277344 67.5 C 27.113281 68.152344 27.199219 68.574219 27.527344 68.761719 C 28.171875 69.132812 28.773438 69.109375 29.335938 68.6875 C 38.359375 61.960938 44.238281 50.351562 43.675781 39.238281 Z M 21.289062 63.960938 C 21.09375 64.074219 20.9375 64.25 20.839844 64.460938 C 20.398438 65.414062 20.71875 66.03125 21.808594 66.300781 C 22.15625 66.386719 22.519531 66.328125 22.824219 66.136719 C 31.882812 60.445312 38.207031 50.738281 37.773438 39.945312 C 37.75 39.367188 37.496094 38.917969 37.011719 38.605469 C 36.820312 38.484375 36.640625 38.445312 36.464844 38.5 C 35.679688 38.722656 35.285156 39.195312 35.285156 39.914062 C 35.230469 49.925781 29.917969 58.957031 21.289062 63.960938 Z M 10.476562 49.71875 C 10.011719 49.84375 9.59375 50 9.222656 50.191406 C 8.707031 50.460938 8.445312 50.882812 8.433594 51.460938 C 8.417969 52.175781 9.105469 52.453125 10.503906 52.285156 C 11.125 52.210938 11.722656 52.050781 12.304688 51.804688 C 16.785156 49.917969 20.683594 45.152344 20.371094 39.960938 C 20.367188 39.875 20.351562 39.792969 20.328125 39.707031 C 20.144531 39.0625 19.472656 38.683594 18.824219 38.863281 C 18.566406 38.933594 18.328125 39.125 18.105469 39.4375 C 17.953125 39.648438 17.863281 39.921875 17.828125 40.269531 C 17.4375 44.480469 14.746094 48.632812 10.476562 49.71875 Z M 19.199219 58.441406 C 18.214844 59.09375 17.222656 59.640625 16.226562 60.082031 C 15.574219 60.371094 15.34375 60.867188 15.535156 61.558594 C 15.574219 61.695312 15.640625 61.808594 15.742188 61.898438 C 16.296875 62.433594 16.921875 62.539062 17.625 62.207031 C 24.070312 59.167969 28.464844 54.292969 30.800781 47.582031 C 31.046875 46.867188 30.859375 46.296875 30.242188 45.859375 C 30.019531 45.703125 29.746094 45.625 29.429688 45.628906 C 29.070312 45.636719 28.75 45.863281 28.621094 46.203125 C 26.648438 51.398438 24.125 55.183594 19.199219 58.441406 Z M 58.457031 52.617188 C 57.835938 52.390625 57.148438 52.703125 56.921875 53.324219 L 53.601562 62.25 C 53.371094 62.867188 53.6875 63.554688 54.304688 63.785156 L 54.492188 63.855469 C 55.113281 64.085938 55.800781 63.769531 56.03125 63.152344 L 59.347656 54.226562 C 59.578125 53.609375 59.261719 52.921875 58.644531 52.6875 Z M 58.457031 52.617188 "/></g><g clip-rule="nonzero" clip-path="url(#de109b962b)"><g clip-rule="nonzero" clip-path="url(#eca87d50a2)"><path style=" stroke:none;fill-rule:nonzero;fill:#84968a;fill-opacity:1;" d="M 35.71875 -7.367188 L 65.457031 -7.367188 L 65.457031 22.367188 L 35.71875 22.367188 Z M 35.71875 -7.367188 "/></g></g><g clip-rule="nonzero" clip-path="url(#7b908d0c54)"><g clip-rule="nonzero" clip-path="url(#07f3384999)"><path style=" stroke:none;fill-rule:nonzero;fill:#84968a;fill-opacity:1;" d="M 53.417969 9.746094 L 83.15625 9.746094 L 83.15625 39.480469 L 53.417969 39.480469 Z M 53.417969 9.746094 "/></g></g><g clip-rule="nonzero" clip-path="url(#d55c179f0b)"><g clip-rule="nonzero" clip-path="url(#94ec08cc87)"><path style=" stroke:none;fill-rule:nonzero;fill:#ffffff;fill-opacity:1;" d="M 57.882812 20.792969 L 73.03125 20.792969 L 73.03125 35.945312 L 57.882812 35.945312 Z M 57.882812 20.792969 "/></g></g><g clip-rule="nonzero" clip-path="url(#48f703dbc1)"><g clip-rule="nonzero" clip-path="url(#4e698563ca)"><path style="fill:none;stroke-width:8;stroke-linecap:butt;stroke-linejoin:miter;stroke:#ffffff;stroke-opacity:1;stroke-miterlimit:4;" d="M 10.095834 -0.00106266 C 4.517985 -0.00106266 0.00208298 4.520097 0.00208298 10.092688 C 0.00208298 15.670537 4.517985 20.186439 10.095834 20.186439 C 15.668426 20.186439 20.189585 15.670537 20.189585 10.092688 C 20.189585 4.520097 15.668426 -0.00106266 10.095834 -0.00106266 Z M 10.095834 -0.00106266 " transform="matrix(0.743034,0,0,0.743034,57.881265,20.793758)"/></g></g><g clip-rule="nonzero" clip-path="url(#ade905515b)"><g clip-rule="nonzero" clip-path="url(#63ea46912a)"><path style=" stroke:none;fill-rule:nonzero;fill:#ffffff;fill-opacity:1;" d="M 54.429688 9.746094 L 63.28125 9.746094 L 63.28125 18.59375 L 54.429688 18.59375 Z M 54.429688 9.746094 "/></g></g><g clip-rule="nonzero" clip-path="url(#a18fbf9c1b)"><g clip-rule="nonzero" clip-path="url(#02888d7a24)"><path style="fill:none;stroke-width:8;stroke-linecap:butt;stroke-linejoin:miter;stroke:#ffffff;stroke-opacity:1;stroke-miterlimit:4;" d="M 5.898942 0.0017483 C 2.638525 0.0017483 -0.00210021 2.642374 -0.00210021 5.897582 C -0.00210021 9.157999 2.638525 11.798624 5.898942 11.798624 C 9.154151 11.798624 11.794776 9.157999 11.794776 5.897582 C 11.794776 2.642374 9.154151 0.0017483 5.898942 0.0017483 Z M 5.898942 0.0017483 " transform="matrix(0.75,0,0,0.75,54.431263,9.744783)"/></g></g><g clip-rule="nonzero" clip-path="url(#9679bfe153)"><g clip-rule="nonzero" clip-path="url(#e71cec1b85)"><path style=" stroke:none;fill-rule:nonzero;fill:#ffffff;fill-opacity:1;" d="M 66.195312 7.007812 L 71.671875 7.007812 L 71.671875 12.480469 L 66.195312 12.480469 Z M 66.195312 7.007812 "/></g></g><g clip-rule="nonzero" clip-path="url(#c5f319e388)"><g clip-rule="nonzero" clip-path="url(#06349abb56)"><path style="fill:none;stroke-width:8;stroke-linecap:butt;stroke-linejoin:miter;stroke:#ffffff;stroke-opacity:1;stroke-miterlimit:4;" d="M 3.646486 0.000735626 C 1.632244 0.000735626 -0.00195194 1.634932 -0.00195194 3.649174 C -0.00195194 5.663415 1.632244 7.297612 3.646486 7.297612 C 5.660728 7.297612 7.294924 5.663415 7.294924 3.649174 C 7.294924 1.634932 5.660728 0.000735626 3.646486 0.000735626 Z M 3.646486 0.000735626 " transform="matrix(0.719486,0,0,0.719486,66.196717,7.007283)"/></g></g></g></svg>
